<svg width="58" height="51" viewBox="0 0 58 51" fill="none" xmlns="http://www.w3.org/2000/svg">
<g clip-path="url(#clip0_5734_189)">
<path d="M0.0214844 0.984123V19.1604L0.0270529 18.4393C0.147345 33.9717 13.0752 47.249 29.0108 47.249C44.9464 47.249 57.8743 34.6927 57.9946 19.1604L58.0001 18.4393V0.984123C58.0001 0.984123 53.9799 -0.997749 49.4065 3.72841C46.47 6.76271 44.1225 17.6632 37.8359 17.7614C29.4405 17.8927 23.7278 6.61947 16.8972 2.40709C13.8653 0.537395 10.3623 -0.00030899 7.33679 -0.00030899C3.24223 -0.000427246 0.0214844 0.984123 0.0214844 0.984123Z" fill="url(#paint0_linear_5734_189)"/>
<path d="M0.0214844 0.984123V19.1604L0.0270529 18.4393C0.147345 33.9717 13.0752 47.249 29.0108 47.249C44.9464 47.249 57.8743 34.6927 57.9946 19.1604L58.0001 18.4393V0.984123C58.0001 0.984123 53.9799 -0.997749 49.4065 3.72841C46.47 6.76271 44.1225 17.6632 37.8359 17.7614C29.4405 17.8927 23.7278 6.61947 16.8972 2.40709C13.8653 0.537395 10.3623 -0.00030899 7.33679 -0.00030899C3.24223 -0.000427246 0.0214844 0.984123 0.0214844 0.984123Z" fill="url(#paint1_linear_5734_189)"/>
<path d="M0 7.99737V20.9537L0.00556848 20.1824C0.12586 36.7975 13.0586 51 29 51C44.9415 51 57.8741 37.5687 57.9944 20.9537L58 20.1824V8.32887C56.3635 8.60446 54.3488 9.41166 52.2212 11.3954C48.9278 14.4663 46.295 25.4976 39.2443 25.5969C29.8286 25.7297 23.4216 14.3212 15.7608 10.0584C12.3606 8.16629 8.43378 7.62226 5.04171 7.62214C3.12725 7.62214 1.38342 7.79539 0 7.99737Z" fill="url(#paint2_linear_5734_189)"/>
<path d="M0 8.02374V20.9801L0.00556848 20.2088C0.12586 36.8238 13.0586 51.0264 29 51.0264C44.9415 51.0264 57.8741 37.595 57.9944 20.9801L58 20.2088V8.35524C56.3635 8.63083 54.3488 9.43803 52.2212 11.4218C48.9278 14.4926 46.295 25.524 39.2443 25.6233C29.8286 25.7561 23.4216 14.3475 15.7608 10.0847C12.3606 8.19265 8.43378 7.64862 5.04171 7.64851C3.12725 7.64851 1.38342 7.82176 0 8.02374Z" fill="url(#paint3_linear_5734_189)"/>
<path d="M0 16.9284V20.9537L0.00556848 20.1824C0.12586 36.7975 13.0586 51 29 51C44.9415 51 57.8741 37.5687 57.9944 20.9537L58 20.1824V18.0904C56.7464 18.5728 55.3811 19.3474 53.9705 20.5693C50.4252 23.6402 47.5911 34.6715 40.0012 34.7709C29.8656 34.9036 22.9685 23.4951 14.7218 19.2322C11.0621 17.3405 6.83553 16.7967 3.18385 16.7967C2.05656 16.7965 0.98426 16.8485 0 16.9284Z" fill="url(#paint4_linear_5734_189)"/>
</g>
<defs>
<linearGradient id="paint0_linear_5734_189" x1="-4.46402" y1="36.0881" x2="69.9566" y2="-2.42078" gradientUnits="userSpaceOnUse">
<stop stop-color="#FFA2FF"/>
<stop offset="0.285552" stop-color="#D7B3FF"/>
<stop offset="0.367148" stop-color="#D7B3FF"/>
<stop offset="0.889732" stop-color="#00FFE5"/>
<stop offset="1" stop-color="#00FFE5"/>
</linearGradient>
<linearGradient id="paint1_linear_5734_189" x1="19.2707" y1="38.5951" x2="33.6721" y2="-4.3821" gradientUnits="userSpaceOnUse">
<stop stop-color="#16173E"/>
<stop offset="0.0001" stop-color="#16173E" stop-opacity="0.46"/>
<stop offset="1" stop-color="#16173E" stop-opacity="0"/>
</linearGradient>
<linearGradient id="paint2_linear_5734_189" x1="-2.00701" y1="38.2152" x2="64.6735" y2="9.0132" gradientUnits="userSpaceOnUse">
<stop stop-color="#FFA2FF"/>
<stop offset="0.285552" stop-color="#D7B3FF"/>
<stop offset="0.367148" stop-color="#D7B3FF"/>
<stop offset="0.889732" stop-color="#00FFE5"/>
<stop offset="1" stop-color="#00FFE5"/>
</linearGradient>
<linearGradient id="paint3_linear_5734_189" x1="16.095" y1="54.0685" x2="32.5725" y2="12.8659" gradientUnits="userSpaceOnUse">
<stop offset="0.0610201" stop-color="#0A0A0A" stop-opacity="0.65"/>
<stop offset="1" stop-color="#3E1630" stop-opacity="0"/>
</linearGradient>
<linearGradient id="paint4_linear_5734_189" x1="-4.85624" y1="42.4885" x2="54.9703" y2="19.7613" gradientUnits="userSpaceOnUse">
<stop stop-color="#FFA2FF"/>
<stop offset="0.285552" stop-color="#D7B3FF"/>
<stop offset="0.324774" stop-color="#D7B3FF"/>
<stop offset="0.889732" stop-color="#52FDE6"/>
<stop offset="1" stop-color="#4EFFE5"/>
</linearGradient>
<clipPath id="clip0_5734_189">
<rect width="58" height="51" fill="white"/>
</clipPath>
</defs>
</svg>
